<svg width="17" height="19" viewBox="0 0 17 19" fill="none" xmlns="http://www.w3.org/2000/svg">
    <path d="M16.3729 0.0125848C16.2473 0.349412 15.8186 0.177936 15.739 0.285108C15.3991 0.741356 14.6152 0.741356 14.554 1.48238C14.5356 1.69366 14.3152 1.89269 14.1682 2.08254C12.089 4.74347 9.89659 7.30642 7.37345 9.56623C6.10576 10.7023 6.46096 10.8125 5.15345 9.45293C4.28995 8.55574 3.4387 7.64937 2.58438 6.74606C2.45884 6.6144 2.34248 6.43986 2.14345 6.61746C1.99034 6.75525 1.60758 6.73382 1.67495 6.98491C1.81887 7.53608 1.30444 7.77798 1.10847 8.075C0.863503 8.44857 0.633847 8.59555 1.07785 8.92013C1.13603 8.963 1.19421 9.05486 1.11765 9.12529C0.765517 9.44374 1.09622 9.62134 1.27076 9.79894C2.07302 10.6135 2.88446 11.4218 3.70816 12.2149C3.94394 12.4415 3.94088 12.5946 3.68979 12.7906C2.9947 13.3387 2.3088 13.8929 1.6229 14.4472C1.08397 14.882 0.54811 15.3198 0 15.7669C0.431751 16.1313 0.590979 15.4485 0.979861 15.6199C0.710399 15.9231 0.422566 16.2078 0.51749 16.6549C0.526676 16.7039 0.428689 16.7774 0.376634 16.8356C0.0367446 17.2306 0.128607 17.6807 0.759392 18.3237C1.06866 18.6391 1.25238 18.2257 1.44836 18.0971C1.75762 17.895 1.96585 17.8093 2.10364 18.2472C2.15876 18.4217 2.22918 18.6024 2.48027 18.4309C3.1478 17.9808 3.91638 17.7021 4.4798 17.0713C5.06465 16.4161 5.76281 15.8618 6.39053 15.2402C6.62018 15.0106 6.81003 14.98 7.055 15.1851C8.27982 16.217 9.5567 17.1724 10.9224 18.0206C11.5562 18.4156 12.0309 18.3574 12.1625 17.6286C12.2238 17.2918 12.432 16.9458 12.3156 16.5784C12.2544 16.3793 12.6892 16.1956 12.3738 16.018C11.9176 15.7669 11.743 15.2617 11.3419 14.9646C10.6162 14.4318 9.9119 13.8623 9.18313 13.3326C8.81262 13.0631 8.72688 12.8518 9.08821 12.4813C11.1337 10.3777 13.026 8.1393 14.7408 5.75396C15.0102 5.38038 15.5216 5.03743 15.1419 4.43727C15.0409 4.27804 15.2338 4.11881 15.1848 3.88916C15.1205 3.59214 15.0225 3.10833 15.1511 2.93379C15.7206 2.16828 15.7911 1.17311 16.3851 0.438212C16.4463 0.36166 16.5076 0.275922 16.5474 0.187122C16.5658 0.144253 16.5566 0.0615777 16.526 0.0340192C16.4923 0.00339851 16.3759 -0.0057878 16.3729 0.0033984V0.0125848Z" fill="white"/>
</svg>
