<svg width="27" height="19" viewBox="0 0 27 19" fill="none" xmlns="http://www.w3.org/2000/svg">
    <path d="M25.7601 0.336693C21.6635 -0.145713 17.3698 -0.00788271 13.2337 0.129948C9.05828 0.267778 4.92221 0.646812 0.786135 1.19813C-0.434992 1.37042 -0.159253 3.23113 1.10126 3.12776C5.11916 2.74873 9.17645 2.50752 13.2337 2.43861C17.291 2.33523 21.3483 2.67981 25.4056 2.64535C26.8631 2.64535 27.2964 0.543439 25.7601 0.336693Z" fill="#8E44D8"/>
    <path d="M25.7601 8.02073C21.6635 7.53833 17.3698 7.67616 13.2337 7.81399C9.05828 7.95182 4.92221 8.33085 0.786135 8.88217C-0.434992 9.05446 -0.159253 10.9152 1.10126 10.8118C5.11916 10.4328 9.17645 10.1916 13.2337 10.1226C17.291 10.0537 21.3483 10.3638 25.4056 10.3638C26.8631 10.3294 27.2964 8.19302 25.7601 8.02073Z" fill="#8E44D8"/>
    <path d="M25.7601 15.7048C21.6635 15.2224 17.3698 15.3602 13.2337 15.498C9.05828 15.6359 4.92221 16.0149 0.786135 16.5662C-0.434992 16.7385 -0.159253 18.5992 1.10126 18.4958C5.11916 18.1168 9.17645 17.8756 13.2337 17.8067C17.291 17.7378 21.3483 18.0479 25.4056 18.0479C26.8631 17.979 27.2964 15.8771 25.7601 15.7048Z" fill="#8E44D8"/>
</svg>
