<svg width="69" height="30" viewBox="0 0 69 30" fill="none" xmlns="http://www.w3.org/2000/svg">
    <path d="M12.9522 16.4802C13.9793 15.843 14.9881 15.1742 16.0362 14.5742C21.1675 11.6364 26.3062 8.71144 31.4523 5.79943C32.5068 5.20402 33.6385 4.74681 34.7077 4.17531C35.164 3.99076 35.5457 3.65919 35.7922 3.23314C36.0388 2.8071 36.1361 2.31096 36.0688 1.82334C36.0178 1.48219 35.8851 1.15842 35.682 0.879629C35.4788 0.60084 35.2113 0.375295 34.9022 0.222219C34.5931 0.0691437 34.2515 -0.00692541 33.9067 0.000495235C33.5618 0.00791588 33.2238 0.0986069 32.9216 0.264838C31.4935 0.852395 30.102 1.53663 28.7235 2.23674C21.2071 6.05036 13.6779 9.83973 6.20564 13.7385C4.48536 14.701 2.85672 15.8188 1.3401 17.078C-0.291695 18.3577 -0.377029 19.5272 0.778709 21.2635C0.894089 21.4038 0.983879 21.5633 1.04396 21.7347C1.2202 22.5138 1.65146 23.2117 2.26937 23.7179C2.88728 24.2241 3.65646 24.5096 4.455 24.529C8.14211 25.0845 11.855 25.4935 15.5198 26.1671C19.7821 26.9504 24.0067 27.9404 28.2412 28.8677C29.5737 29.1595 30.8844 29.5493 32.2098 29.8748C32.4749 29.9713 32.7569 30.0128 33.0385 29.9966C33.3201 29.9804 33.5955 29.9069 33.8478 29.7806C34.1 29.6543 34.3238 29.4778 34.5056 29.262C34.6872 29.0462 34.823 28.7956 34.9045 28.5255C34.9692 28.2508 34.9758 27.9655 34.9238 27.6881C34.8719 27.4106 34.7625 27.1471 34.6026 26.9144C34.4428 26.6817 34.2361 26.485 33.9958 26.3369C33.7556 26.1888 33.4869 26.0926 33.2073 26.0544C29.3772 25.1176 25.5465 24.1772 21.6936 23.3426C18.5241 22.6559 15.3221 22.1193 12.1353 21.5118C11.9206 21.47 11.7273 21.3543 11.5891 21.1846C11.8807 21.1241 12.1702 21.0496 12.4641 21.0047C21.6666 19.6048 30.8804 18.3056 40.1843 17.7694C48.0502 17.2264 55.9461 17.2863 63.8028 17.9484C64.6479 18.0294 65.4932 18.1393 66.3398 18.1564C66.6508 18.2094 66.9696 18.1955 67.2749 18.1155C67.5801 18.0356 67.8649 17.8915 68.11 17.6928C68.3552 17.4942 68.5552 17.2456 68.6967 16.9635C68.8382 16.6815 68.918 16.3725 68.9307 16.0572C68.9434 15.7419 68.8887 15.4275 68.7703 15.135C68.652 14.8425 68.4726 14.5786 68.2442 14.3609C68.0157 14.1432 67.7435 13.9767 67.4457 13.8724C67.1478 13.7682 66.8312 13.7287 66.5169 13.7565C61.8545 13.5623 57.1903 13.2841 52.5263 13.2733C40.1556 13.4241 27.8124 14.4792 15.5956 16.4304C14.7391 16.5543 13.8777 16.6438 13.0188 16.7494L12.9522 16.4802Z" fill="white"/>
</svg>
