<svg width="69" height="30" viewBox="0 0 69 30" fill="none" xmlns="http://www.w3.org/2000/svg">
    <path d="M55.9803 16.4802C54.9532 15.843 53.9444 15.1742 52.8963 14.5742C47.7649 11.6364 42.6263 8.71144 37.4802 5.79943C36.4257 5.20402 35.294 4.74681 34.2248 4.17531C33.7685 3.99076 33.3868 3.65919 33.1402 3.23314C32.8937 2.8071 32.7964 2.31096 32.8637 1.82334C32.9147 1.48219 33.0474 1.15842 33.2505 0.879629C33.4537 0.60084 33.7212 0.375295 34.0303 0.222219C34.3394 0.0691437 34.681 -0.00692541 35.0258 0.000495235C35.3707 0.00791588 35.7086 0.0986069 36.0109 0.264838C37.439 0.852395 38.8305 1.53663 40.209 2.23674C47.7254 6.05036 55.2546 9.83973 62.7269 13.7385C64.4471 14.701 66.0758 15.8188 67.5924 17.078C69.2242 18.3577 69.3095 19.5272 68.1538 21.2635C68.0384 21.4038 67.9486 21.5633 67.8885 21.7347C67.7123 22.5138 67.281 23.2117 66.6631 23.7179C66.0452 24.2241 65.276 24.5096 64.4775 24.529C60.7904 25.0845 57.0774 25.4935 53.4127 26.1671C49.1504 26.9504 44.9258 27.9404 40.6913 28.8677C39.3588 29.1595 38.0481 29.5493 36.7227 29.8748C36.4576 29.9713 36.1756 30.0128 35.894 29.9966C35.6124 29.9804 35.337 29.9069 35.0847 29.7806C34.8325 29.6543 34.6086 29.4778 34.4269 29.262C34.2452 29.0462 34.1095 28.7956 34.028 28.5255C33.9633 28.2508 33.9567 27.9655 34.0087 27.6881C34.0606 27.4106 34.17 27.1471 34.3299 26.9144C34.4897 26.6817 34.6963 26.485 34.9366 26.3369C35.1769 26.1888 35.4456 26.0926 35.7252 26.0544C39.5553 25.1176 43.386 24.1772 47.2389 23.3426C50.4084 22.6559 53.6104 22.1193 56.7972 21.5118C57.0119 21.47 57.2052 21.3543 57.3434 21.1846C57.0518 21.1241 56.7623 21.0496 56.4684 21.0047C47.2659 19.6048 38.0521 18.3056 28.7482 17.7694C20.8823 17.2264 12.9864 17.2863 5.12968 17.9484C4.28456 18.0294 3.43926 18.1393 2.59273 18.1565C2.28166 18.2094 1.96287 18.1955 1.65761 18.1155C1.35235 18.0356 1.06764 17.8915 0.822467 17.6928C0.577289 17.4942 0.377276 17.2456 0.235763 16.9635C0.0942504 16.6815 0.0144892 16.3725 0.00179674 16.0572C-0.0108957 15.7419 0.0437722 15.4275 0.162157 15.135C0.280541 14.8425 0.459921 14.5786 0.688338 14.3609C0.916754 14.1432 1.18896 13.9767 1.4868 13.8724C1.78465 13.7682 2.10129 13.7287 2.41561 13.7565C7.07803 13.5623 11.7422 13.2841 16.4062 13.2733C28.7769 13.4241 41.1201 14.4792 53.3369 16.4304C54.1934 16.5543 55.0548 16.6438 55.9137 16.7494L55.9803 16.4802Z" fill="white"/>
</svg>
